<svg id="Layer_1" data-name="Layer 1" xmlns="http://www.w3.org/2000/svg" viewBox="0 0 904 300"><defs><style>.cls-1{fill:#fff;}</style></defs><title>DT</title><path class="cls-1" d="M99.79,147.41c.07-.14.11-.26.18-.39l-.26.42Z"/><path class="cls-1" d="M210.68,165.59c.2.31.38.56.59.94l-.1-.19Z"/><path class="cls-1" d="M215.84,173.4l-1.74-2.73Z"/><path class="cls-1" d="M108.86,166.53c.21-.38.39-.63.59-.94l-.49.75A1.09,1.09,0,0,0,108.86,166.53Z"/><path class="cls-1" d="M104.29,173.4c.84-1.31.84-1.31,1.73-2.73Z"/><path class="cls-1" d="M220.34,147.41l.08,0-.26-.42C220.22,147.15,220.27,147.27,220.34,147.41Z"/><path class="cls-1" d="M301.86,130A140,140,0,0,0,291.41,97c-1.16-2.31-1,.23-2.35-2.71.4-1,1.39,1.38.67-1.34a141.79,141.79,0,0,0-64.49-64.45,139.54,139.54,0,0,0-91.91-10.85,136.71,136.71,0,0,0-43,17.8,132.2,132.2,0,0,0-12.56,9l-1.61,1.22a137.78,137.78,0,0,0-44.36,61.37,139.33,139.33,0,0,0-7.46,32.09c-.68-.08-.38-3.76.16-7.43s1.24-7.33.59-7.54c.67-.9,1.91-5.61,3.37-10.45s3-9.8,3.31-11.52c-1.37,3.14-1.18.56.1-1.15-1.54,1.44-3.36,6.27-4.77,11.48s-2.48,10.75-3.59,13.57c-.62-3-.69-.38-2.07,3.5,1.16-5,.73-4.88,2-9.47.42-.11.12,1.49.74.87-.08-3.22,2.36-7.71,2.26-10.29-.5,1.44-1.45,3.33-1.07,1.55.63-.54,1.05-2.94,1.14-3.89.36,0,.1,2,1.06-.36,1-3.56-.49.33.19-3.51,1.61-2.76,1.22-2.63,1.07-.33,1.43-4.1,1.44-4.39,1.34-4.61s-.22-.35,1.31-4c.63.9,2.41-2.75,4.49-7l5.47-11.21c3.32-2.84,5.18-7.06,9.16-12.33A136.84,136.84,0,0,1,65,49.73a146.23,146.23,0,0,1,20.64-15.6,154.39,154.39,0,0,1,24-12.19,178.58,178.58,0,0,1,22.89-7.45c3,.21,8-1,12.87-1.74s9.48-1.26,11.23-.42a52.57,52.57,0,0,1,7.55-1.8,50.42,50.42,0,0,1,11.8.21c-5.83-1.21-.92-1.22-5.22-1.82-2.33,0,1.94,1-1.94,1.14A33.07,33.07,0,0,0,160.73,9a40.7,40.7,0,0,0-7.93.57c.92-.74-3-.84-8.29-.23a96.83,96.83,0,0,0-15.94,3.3A142.6,142.6,0,0,0,41.13,71.09a139.84,139.84,0,0,0-16,30.76c-.81,2.46.85.53-.26,3.58-1,.45,0-2-1.43.49a141.82,141.82,0,0,0,0,91.46A139.42,139.42,0,0,0,81.1,270.15a135.69,135.69,0,0,0,167.66-18A111,111,0,0,0,266,230.07a152.31,152.31,0,0,0,12-25.16.57.57,0,0,0-.24.08l.82-2.1c1.32-3.37,2.84-6.8,4-10.1a26.44,26.44,0,0,0,1.85-9.15A76.86,76.86,0,0,0,287.61,163c.26-6.67-.06-12.52.44-16.24a73.34,73.34,0,0,0,1.25,10.72c-.27,1.9-1,2.3-1.2,4.53.51,6.68-.65,12.71.54,14,.06-4.33,1.34-9.81,1.88-14.35.59-.23.11,4,.83,3.21.3-3.19.34-6.7,1.28-7.17a121.26,121.26,0,0,1-4.89,36.46,161.48,161.48,0,0,1-14.4,34c-.61-.18-2.46,2.26-3.87,4.43s-2.33,4.16-.67,3.25c4-5.11,6.94-10.92,9.41-14.65.58-2.41,3-7.21,5.42-12.78s5.05-11.91,6.82-17c-.28,3.53-2.13,8.34-3.85,12.4s-3.23,7.43-2.35,8.61a136.85,136.85,0,0,0,10.92-39.9A137.93,137.93,0,0,0,265.64,70.18c.54-.43,2.92,2.38,5.14,5.34s4.29,6,4.89,5.72c.16,1.11,2.61,5.31,5,9.74s4.77,9,5.8,10.44c-1.25-3.17.44-1.22.74.89.08-2.1-2.06-6.79-4.74-11.45s-5.84-9.32-7.05-12.09c2.55,1.66.76-.22-1-3.93C275.8,77,276.5,78,277.19,79a36.62,36.62,0,0,1,2.51,3.94c-.22.38-1.13-1-1.14-.08,2.33,2.21,3.78,7.08,5.68,8.84-.67-1.37-1.34-3.37-.35-1.85-.06.82,1.33,2.81,1.95,3.54-.28.23-1.5-1.35-.5,1,1.8,3.22.11-.58,2.35,2.61.81,3.08,1,2.71-.53,1,1.89,3.9,2.09,4.1,2.31,4.19s.41.09,1.93,3.76c-1.08-.18.24,3.64,1.79,8.11l4.07,11.76c-.33,4.34,1.35,8.61,2.27,15.13a136.81,136.81,0,0,1,.61,21,146.76,146.76,0,0,1-3.47,25.56,155.36,155.36,0,0,1-8.2,25.51,181.61,181.61,0,0,1-10.78,21.43c-2.24,1.95-4.95,6.34-7.8,10.33s-5.76,7.6-7.58,8.24a54.62,54.62,0,0,1-4,6.62,50.1,50.1,0,0,1-8.44,8.22c5-3.28,1.52.2,5-2.42,1.63-1.66-2.07.67.55-2.17,4.05-2.21,9.19-7.41,11.58-11-.12,1.17,2.72-1.57,6-5.71a96.83,96.83,0,0,0,8.84-13.61,140.62,140.62,0,0,0,14.48-29.68A142.61,142.61,0,0,0,301.86,130ZM30,119.76c-.85-.52-1.41,3.74-2.24,3.24a6,6,0,0,1,1.53-3.5c.56-.69,1.07-1.56,1.61-4.62C31.24,115.1,30.34,117.9,30,119.76Zm95.67-27.05c-.15,1-.59,2.68-.31,2.75l.36-1a.81.81,0,0,1,.06-.08,3.77,3.77,0,0,0,.28-1c.53-.79.11.66-.48,2.5-.85,1.83,1-2.64.2-1.48-.12.34-.25.71-.4,1.18,0,0,0,0,0-.05l-.75,2.25a22,22,0,0,0,.73-3.91c-.43,1.12-1,2.94-.67,2.53l-.8,1.52Zm-.51,4.9c.28.63-.82,2.54-1.19,4.67l-.38.74Zm-4,7.85c.08,0,0,.42-.17.92.09.48,1.2-1.55-.12,2.18.32-1.07.64-2.13.26-1.73l-.41,1.07c-.24.24.06-.73.27-1.52A2.64,2.64,0,0,1,121.12,105.46Zm-26.89,48c.27-.27.4-.41.59-.59l.45-.62-.08.23c2.15-2.37,2.46-3.83,5.14-7.51a58.18,58.18,0,0,1-5.26,7.92l.12-.41-.37.39c-1.5,2.06-.26,1-3.6,4.79A51,51,0,0,0,94.23,153.45Zm55-18.27c-.09,1-.17,2.43-.23,3.89,0,1.63-.06,3.16-.08,4.45.46,15.52.35,29.56.23,43.6-.11,5.39-.26,13.32-.47,24.61L133,211.24l-3.7.41c-.13-1.67-.25-3.25-.34-4.45-.09-2.51-.14-4.08-.16-4.81-.17-10.87-.56-25.6.7-33.52a52.26,52.26,0,0,1-.27-9.66c.24-2.78.38-5.71.46-8.72-.15-6.91-.37-14.12-.12-20.79a.66.66,0,0,1,0,.14c0-.3,0-.61,0-.92-.83,1.88-1.65,3.66-2.43,5.19-1.92,3.58-3.54,6.8-5.14,9.88l-.21.47c-.45,1.07-1,2.29-1.66,3.51.36-.71.65-1.33.93-1.93h-.14c-.42.79-.85,1.57-1.28,2.35-1.93,4-4.6,8.86-5.06,10.3-1.41,1.39.54-1.73,2.13-4.52l-5.88,9.4-.5.76a19.24,19.24,0,0,0,2.57-3.92c.62-.68.54-.34,0,.69-1.91,2.95-5.46,8.52-6.71,9.43l-1.89,2.86-2,2-.8,1.13.72-1.13-.59.73c-.37.26-.8,1.42-1.12,1l-1-1.57-1.88-3.13c-3.1-5.23-3.62-6.15-5-8.93-.23-.6-.39-1-.5-1.38-1.23-1.75.36,1,.68,1.91-1.61-1.69-2.06-3.06-1.94-4.18a.7.7,0,0,1,.07-.42c.41-1.68,2.1-2.74,2.86-3.45l.35-.43a1.49,1.49,0,0,1-.35.43l-2.39,2.94a1.11,1.11,0,0,0-.47.51,2,2,0,0,0-.07.42A4.94,4.94,0,0,0,92,161.68c-.08-.3-.08-.44,0-.48l-.65-1.35c1.09-1.45,2.28-2.46,2.58-3a78.69,78.69,0,0,0,5.61-8.94,3.22,3.22,0,0,0-.28.24c-1.12,1.77-2.84,4.24-3.54,5.12l1.84-3.17.91-.93c.63-.95.34-1,.34-1L99,148a2.64,2.64,0,0,1,.1-.31l.18-.07,1-1.35c.07-.05.06,0,.07.05a41.24,41.24,0,0,1,2.89-5.83l0-.05c.74-1.52,1.54-3.13,2.56-5a29.42,29.42,0,0,1,1.87-2.73l.16-.3a10.11,10.11,0,0,1,1.22-1.5,3.28,3.28,0,0,1,.56-.61,29.06,29.06,0,0,1-2.2,5.53l.31-.54-.16.35-.18.26c-.9,1.9-1.87,3.86-2.55,5.28a24.35,24.35,0,0,1-.84,2.65c-.61,1.68,1.79-1.63,2.39-2.5a43.28,43.28,0,0,1-3.4,6.79q3-4.45,6-9.46h-.34c1.65-2.73,1.64-3.41,3.41-6.47l.06-.08h0v0a16.75,16.75,0,0,1-1.78,4.2A245.63,245.63,0,0,0,129.71,94.1h15.87V102c.27-2.67.53-5.28.72-7.89,1.21,1.24,2.62,2.37,3,13.12.05,1.57.05,3.18.05,4.8.19,2.38.37,5,.54,7.82-.41,3.62-.61,9.1-.74,14.26Zm75.6,17.06.45.62c.19.18.32.32.59.59a48.66,48.66,0,0,0,3,4.2c-3.34-3.75-2.1-2.73-3.6-4.79l-.37-.39.11.41A58.17,58.17,0,0,1,219.8,145c2.68,3.68,3,5.14,5.14,7.51Zm-25.68-45.86c-.14-.5-.25-.93-.17-.92a2.64,2.64,0,0,1,.17.92c.21.79.51,1.76.27,1.52l-.41-1.07c-.38-.4-.06.66.26,1.73C198,104.83,199.09,106.87,199.18,106.38Zm-5.09-13.07a3.42,3.42,0,0,0,.28,1,.81.81,0,0,1,.06.08l.36,1c.28-.07-.16-1.73-.32-2.75l1.81,5.14-.8-1.52c.35.41-.24-1.41-.67-2.53a22,22,0,0,0,.73,3.91l-.75-2.25s0,.05,0,.05c-.15-.47-.28-.84-.4-1.18-.85-1.16,1,3.31.2,1.48C194,94,193.56,92.52,194.09,93.31Zm2.47,9.71-.38-.74c-.37-2.13-1.47-4-1.19-4.67Zm30.73,61c.33-.9,1.92-3.66.68-1.91-.1.34-.26.78-.49,1.38-1.4,2.78-1.92,3.7-5,8.93l-1.88,3.13-1,1.57c-.32.46-.76-.7-1.12-1l-.59-.73.72,1.13-.8-1.13-2-2c-.72-1.08-1.33-2-1.89-2.86-1.25-.91-4.8-6.48-6.72-9.43-.49-1-.57-1.37.05-.69a19.24,19.24,0,0,0,2.57,3.92l-.51-.76-5.87-9.4c1.59,2.79,3.54,5.91,2.13,4.52-.46-1.44-3.13-6.26-5.07-10.3-.42-.78-.85-1.56-1.27-2.35h-.14c.28.6.57,1.22.93,1.93a38.62,38.62,0,0,1-1.66-3.51c-.07-.16-.14-.32-.22-.47-1.59-3.08-3.21-6.3-5.13-9.88-.78-1.53-1.6-3.31-2.43-5.19,0,.31,0,.62,0,.92a.66.66,0,0,1,0-.14c.25,6.67,0,13.88-.13,20.79.09,3,.22,5.94.47,8.72a53.16,53.16,0,0,1-.27,9.66c1.26,7.92.86,22.65.7,33.52,0,.73-.07,2.3-.16,4.81-.09,1.2-.21,2.78-.34,4.45l-3.7-.41-15.75.49c-.21-11.29-.37-19.22-.47-24.61-.12-14-.23-28.08.23-43.6,0-1.29-.05-2.83-.08-4.46-.06-1.45-.14-2.89-.23-3.88l.12-1.08c-.13-5.16-.33-10.64-.74-14.26.17-2.82.35-5.44.54-7.82,0-1.62,0-3.23.05-4.8.37-10.75,1.78-11.88,3-13.12.19,2.61.45,5.22.72,7.89V94.1h15.87a246.34,246.34,0,0,0,19.38,42.24,16.27,16.27,0,0,1-1.77-4.2v0h0l.06.08c1.77,3.06,1.76,3.74,3.41,6.47h-.34c2,3.33,4,6.49,6,9.46a42.41,42.41,0,0,1-3.4-6.79c.6.87,3,4.18,2.39,2.5a22.34,22.34,0,0,1-.84-2.65c-.68-1.42-1.65-3.38-2.55-5.28l-.18-.26-.17-.35.32.54a28.38,28.38,0,0,1-2.2-5.53,3.28,3.28,0,0,1,.56.61,10.21,10.21,0,0,1,1.22,1.5l.16.3a29.42,29.42,0,0,1,1.87,2.73c1,1.87,1.82,3.48,2.56,5l.05.05a42.4,42.4,0,0,1,2.89,5.83s0-.1.07-.05l1,1.35.18.07a2.64,2.64,0,0,1,.1.31l.15.21s-.29,0,.34,1l.91.93,1.84,3.17c-.71-.88-2.42-3.35-3.55-5.12a2.1,2.1,0,0,0-.27-.24,78.69,78.69,0,0,0,5.61,8.94c.3.52,1.49,1.53,2.58,3l-.65,1.35s0,.18,0,.48a4.94,4.94,0,0,0,1.15-1.87,2,2,0,0,0-.07-.42,1.09,1.09,0,0,0-.48-.51l-2.38-2.94a1.49,1.49,0,0,1-.35-.43l.35.43c.76.71,2.45,1.77,2.86,3.45a.78.78,0,0,1,.07.42C229.36,160.93,228.91,162.3,227.29,164Zm67.38-14.5a35.8,35.8,0,0,1,.07,8c-.23.15-.43-2.14-.53-4.31S294.14,148.94,294.67,149.49ZM273.35,211c.52-1.12,1-2.17,1.33-3.07,0,.47.07.91.39,1A6,6,0,0,1,273.35,211Zm3.64-5.62c-.18-.42-.83-.1-1.1-.49s-.13-1.49,1.07-4.76c.33-.06-.21,1.33-.45,2.2.82.14,1.8-4.52,2.57-3.81C277.66,202.11,278,202.64,277,205.35Zm3.86-47.22c.42.1.28,2.77.29,4.48l-.92.53C279.93,159.7,280.73,160,280.85,158.13Zm.94,33.09c-.54,1.74-1.36-.54-.24-4.27.64-.38.4,1.19,1.09.69C282.25,189.66,281.33,190.93,281.79,191.22Zm8-42a8.81,8.81,0,0,1-.12-1.9,19.16,19.16,0,0,1,.41,2C289.93,149.16,289.84,149.15,289.76,149.2Zm.42,1.13a2.72,2.72,0,0,1-.11-.25c-.05-2,0-4.78-.2-7.39C290.9,143.39,290.27,147.83,290.18,150.33Zm2.25,4.68c-.26,2.27-.87,4.12-1.6,3.92a12.45,12.45,0,0,1,.7-5.3,10,10,0,0,0,.65-4.88A17.22,17.22,0,0,1,292.43,155Zm-2.13-21.63c1.11,3.52.66-3.51,1.79-.31a5.7,5.7,0,0,1-1.09,4.06c.78,4.68.89,3.32,1.09,7.58-.56-.35-.91-3-1.31-5.25s-.76-4-1-2.57c-.5-.85-.47-2.24-1.49-5.92.47.31.7.15.76-.31a1.25,1.25,0,0,0,.17-.38,9.59,9.59,0,0,0-.36-1.66c-.12-.59-.27-1.24-.45-1.93-.72-2.85-1.88-6.27-1.93-8A56.59,56.59,0,0,1,290.3,133.38Zm-5.81-8.5c1.52,6.18,2.46,12.45,3.86,14.73.17,3.24-1.51-1.33-.58,4.64-1.1-4.94-2-10.86-3.31-16.81a89.34,89.34,0,0,0-5.13-16.71C281,112.64,283,118.69,284.49,124.88ZM274.62,84A6,6,0,0,1,276,87.54c.09.87.34,1.85,2.13,4.39-.42.09-1.76-2.51-2.82-4.08C276.29,87.62,273.68,84.22,274.62,84Zm-.22,115.59c1.14-3.85,2.08-7.92,2.82-11.51.11,0,.27-.27.56-.85.73-2.3.29-2.05.05-2.27.14-.74.27-1.45.39-2.11l.06-.35c1-1.6,1.75-1.1,1.79-.41-1,4.49-2.27,10.07-3.69,14.46s-2.75,7.42-3.38,7.54C273.48,202.64,274,201.13,274.4,199.58Z"/><path class="cls-1" d="M177.35,10c5,1,10.64,1.87,15.87,3a95.13,95.13,0,0,1,13.29,3.56c-2.24-1.55-7-3.1-12.1-4.31S184,10.12,180.74,9.13c1.39.74-.16.57-1.71.43S176,9.32,177.35,10Z"/><path class="cls-1" d="M72.09,44.66c-11,8.89-19.08,18.6-23.7,26a73.39,73.39,0,0,0-9.75,13.93,63.94,63.94,0,0,0-6,14.29l.71-.18a122.48,122.48,0,0,1,13.15-25A134.71,134.71,0,0,1,65.18,52,147,147,0,0,1,87.4,34.74,167.46,167.46,0,0,1,111,22.34a147.72,147.72,0,0,0-20.68,9.83A137.1,137.1,0,0,0,72.09,44.66Z"/><path class="cls-1" d="M191.12,14.34c2.77.12,8.66,1.81,9,1C195.27,14.1,192.09,13.82,191.12,14.34Z"/><path class="cls-1" d="M248.8,267.82c-4.19,2.86-8.8,6.24-13.26,9.18a94.34,94.34,0,0,1-11.9,6.91c2.68-.49,7.16-2.79,11.59-5.54s8.8-5.89,11.81-7.52c-1.5.46-.28-.52.9-1.52S250.28,267.32,248.8,267.82Z"/><path class="cls-1" d="M229,280.16c4.3-2.51,6.75-4.55,7.06-5.62C234,276.42,228.66,279.41,229,280.16Z"/><path class="cls-1" d="M243.6,263.12c3.88-3.1,8.84-6.22,9.71-8.94C250.53,257.1,246.35,260,243.6,263.12Z"/><path class="cls-1" d="M224.48,275.81a66,66,0,0,0,7.2-3.76c2.64-1.63,4.88-3.39,5-4.25a41.57,41.57,0,0,1-5.65,4C228.7,273.23,226.23,274.63,224.48,275.81Z"/><path class="cls-1" d="M250.42,253.66a32.52,32.52,0,0,0-3.85,3.92,22.84,22.84,0,0,1-3.1,3.27c-.42-.22-2.39,1-4.39,2.48a24.93,24.93,0,0,0-4.52,3.76,62,62,0,0,0,9.87-6.6,92,92,0,0,0,8.35-7.49C254.83,250.78,250.77,253.91,250.42,253.66Z"/><path class="cls-1" d="M699.46,147.2H683.07V81.4a7,7,0,0,0-.64.88c-2.49,6.07-6.49,11.2-10.15,16.54s-7.56,10.91-11.3,16.39a2.34,2.34,0,0,1-2.27,1.24c-2-.09-4,0-5.94-.07a2.42,2.42,0,0,1-1.69-.82c-6.15-8.81-12.29-17.62-18.32-26.51a54.4,54.4,0,0,1-3-5.94,3.19,3.19,0,0,0-1-1.34V147.2h-16.4V54.54h1.64c4.16,0,8.32.05,12.47,0A2.87,2.87,0,0,1,629.25,56q12.74,20.06,25.6,40c.34.53.7,1,1.16,1.74,1.56-2.41,3-4.64,4.45-6.88Q671.76,73.39,683,55.83a2.41,2.41,0,0,1,2.36-1.32c4.65.07,9.3,0,14.08,0Z"/><path class="cls-1" d="M816.38,54.54c3.54,0,7,.17,10.45-.06,2.38-.16,3.66.69,5,2.64,12.19,18.12,24.5,36.14,36.74,54.22,1.1,1.63,2,3.43,3.05,5.4V54.67h16.54v92.52c-.44,0-.87.09-1.3.09-3.62,0-7.23,0-10.85,0a2.07,2.07,0,0,1-2-1Q857.53,122.51,841,98.76c-.56-.81-1.15-1.61-1.69-2.44l-6.48-10v60.89H816.38Z"/><path class="cls-1" d="M758.07,52.24c9.69,0,18.63,2.36,26.22,8.68,6.91,5.76,11.05,13.28,13.22,21.87,3.45,13.66,3.32,27.29-1.36,40.66-3.81,10.89-10.71,19.32-21.78,23.28-14.13,5.06-28,4.35-40.71-4.36-7.8-5.34-12.36-13.16-14.85-22.12a68.46,68.46,0,0,1,.69-40.67c5.77-17.27,18.61-26.64,36.79-27.34C756.89,52.22,757.48,52.24,758.07,52.24Zm23.53,48.69c-.1-6.54-.35-13.06-2.34-19.37C777,74.47,772.55,69.65,765.12,68A31.94,31.94,0,0,0,751,68c-5.45,1.22-9.75,4.17-12.3,9.2A29.77,29.77,0,0,0,736,84.67a81.78,81.78,0,0,0,0,32.58c1.37,6.76,4.52,12.46,11.26,15.41a26.83,26.83,0,0,0,12.2,2c11.77-.51,18.47-6.07,20.67-17.61A127.39,127.39,0,0,0,781.6,100.93Z"/><path class="cls-1" d="M359.44,54.58c1.84-.09,3.61-.22,5.38-.23,9.15-.08,18.32-.49,27.45-.1a40.82,40.82,0,0,1,26.38,10.48,39.84,39.84,0,0,1,12,20.63c2.8,11.34,2.82,22.7-.9,33.83-5.23,15.61-16.29,24.72-32.3,28-6.61,1.35-13.3,1.08-20,.9-5.4-.14-10.78-.43-16.18-.66-.58,0-1.17-.1-1.81-.16ZM375.92,69V133c6.95.18,13.82.56,20.62-.95,8.55-1.91,14-7.07,16.06-15.61a66.31,66.31,0,0,0-.06-31.19C410.78,78,406.36,73,399.13,70.67,391.57,68.26,383.78,68.76,375.92,69Z"/><path class="cls-1" d="M438,147.29l6.31-16.78q14-37.3,28-74.62a1.79,1.79,0,0,1,2-1.38q6.38.1,12.77,0a1.6,1.6,0,0,1,1.8,1.27q8.9,23.68,17.85,47.36,8,21.17,16,42.34c.19.51.36,1,.59,1.68-.5.05-.91.12-1.32.12-4.9,0-9.81,0-14.71,0a1.56,1.56,0,0,1-1.78-1.27c-2-5.89-4.17-11.75-6.23-17.63a1.42,1.42,0,0,0-1.57-1.16q-17.08,0-34.16,0c-1,0-1.34.5-1.62,1.31-2.06,5.83-4.16,11.64-6.18,17.49a1.57,1.57,0,0,1-1.78,1.27C448.77,147.26,443.53,147.29,438,147.29Zm55.74-34.06q-6.67-19.12-13.13-37.68-6.54,18.65-13.2,37.68Z"/><path class="cls-1" d="M585.77,107.23H553.21v25.31h39c1.89,0,1.92,0,1.92,2,0,4.19,0,8.39,0,12.7H536.68V54.62h57.69c0,.48.07,1,.06,1.42-.1,4-.26,7.92-.28,11.88,0,1.24-.39,1.58-1.61,1.57-12.43,0-24.86,0-37.29,0h-2v23h32.53Z"/><path class="cls-1" d="M376.26,247.06V211.64h-12.1v-6.11H396v6.11H383.85v35.42Z"/><path class="cls-1" d="M408.17,247.06V205.53h27.11v6.11H415.76V223H433.5V229H415.76v12h19.52v6.11Z"/><path class="cls-1" d="M467.78,247.77a20.6,20.6,0,0,1-10.79-2.7,18,18,0,0,1-6.94-7.53,27,27,0,0,1,0-22.4,18.14,18.14,0,0,1,6.94-7.59,20.42,20.42,0,0,1,10.79-2.73q7.49,0,12.25,3.71a16.19,16.19,0,0,1,6,10.41h-8.36a9,9,0,0,0-3.29-5.31,10.74,10.74,0,0,0-6.67-1.93,11.1,11.1,0,0,0-9,3.92q-3.27,3.91-3.27,10.73t3.27,10.71a11.14,11.14,0,0,0,9,3.89,11.25,11.25,0,0,0,6.67-1.81,8.39,8.39,0,0,0,3.29-5H486a15.63,15.63,0,0,1-6,10Q475.26,247.77,467.78,247.77Z"/><path class="cls-1" d="M499.22,247.06V205.53h7.59v17.26h18.63V205.53H533v41.53h-7.59V229H506.81v18.09Z"/><path class="cls-1" d="M547.62,247.06V205.53h7.6l19.51,29.25V205.53h7.6v41.53h-7.6l-19.51-29.19v29.19Z"/><path class="cls-1" d="M616.37,247.77A21.1,21.1,0,0,1,605.49,245a19.31,19.31,0,0,1-7.3-7.56,25,25,0,0,1,0-22.37,19.31,19.31,0,0,1,7.3-7.56,23,23,0,0,1,21.74,0,19.17,19.17,0,0,1,7.3,7.56,25.27,25.27,0,0,1,0,22.37,19.17,19.17,0,0,1-7.3,7.56A21.16,21.16,0,0,1,616.37,247.77Zm0-6.82a12.1,12.1,0,0,0,9.46-3.92q3.54-3.92,3.53-10.73t-3.53-10.74a13.41,13.41,0,0,0-19,0q-3.55,3.91-3.56,10.74T606.88,237A12.21,12.21,0,0,0,616.37,241Z"/><path class="cls-1" d="M650.36,247.06V205.53H658v35.6h18.39v5.93Z"/><path class="cls-1" d="M705.29,247.77A21.1,21.1,0,0,1,694.41,245a19.31,19.31,0,0,1-7.3-7.56,25,25,0,0,1,0-22.37,19.31,19.31,0,0,1,7.3-7.56,23,23,0,0,1,21.74,0,19.08,19.08,0,0,1,7.29,7.56,25.27,25.27,0,0,1,0,22.37,19.08,19.08,0,0,1-7.29,7.56A21.21,21.21,0,0,1,705.29,247.77Zm0-6.82a12.1,12.1,0,0,0,9.46-3.92q3.54-3.92,3.53-10.73t-3.53-10.74a13.41,13.41,0,0,0-19,0q-3.56,3.91-3.56,10.74T695.8,237A12.21,12.21,0,0,0,705.29,241Z"/><path class="cls-1" d="M757.43,247.77a19.37,19.37,0,0,1-10.26-2.67,18.15,18.15,0,0,1-6.82-7.45,26.63,26.63,0,0,1,.09-22.42,18.59,18.59,0,0,1,7.18-7.65,21.29,21.29,0,0,1,11.06-2.76,20,20,0,0,1,12.1,3.5A16,16,0,0,1,777,218h-8.48a8.4,8.4,0,0,0-3.44-4.54,11.48,11.48,0,0,0-6.41-1.63q-6.23,0-9.61,4t-3.38,10.82q0,6.89,3.35,10.65a11.57,11.57,0,0,0,9.11,3.77q5.63,0,8.51-3.06a13.73,13.73,0,0,0,3.47-8h-10.5v-5.69h18.15v22.84h-7l-.59-5.46a14,14,0,0,1-5,4.57A16.41,16.41,0,0,1,757.43,247.77Z"/><path class="cls-1" d="M791.66,247.06V205.53h7.59v41.53Z"/><path class="cls-1" d="M813.84,247.06V205.53H841v6.11H821.44V223h17.73V229H821.44v12H841v6.11Z"/><path class="cls-1" d="M868.83,247.77a19.66,19.66,0,0,1-8.07-1.57,12.94,12.94,0,0,1-5.51-4.51,12.62,12.62,0,0,1-2.08-7.15h8a7.08,7.08,0,0,0,2.1,4.89,8.63,8.63,0,0,0,10.3.54,4.79,4.79,0,0,0,1.78-3.89,5.08,5.08,0,0,0-1.58-4,11.86,11.86,0,0,0-4.18-2.32L864,227.9a18.35,18.35,0,0,1-7.33-4.27,9.59,9.59,0,0,1-2.52-6.95,10.54,10.54,0,0,1,1.75-6.31,11.92,11.92,0,0,1,5-4.1,17.23,17.23,0,0,1,7.24-1.45,17.06,17.06,0,0,1,7.32,1.48,12,12,0,0,1,5,4.16,11.7,11.7,0,0,1,1.93,6.34h-8.13a5.64,5.64,0,0,0-1.69-3.88,6,6,0,0,0-4.54-1.69,6.47,6.47,0,0,0-4.18,1.21,4.36,4.36,0,0,0-1.69,3.71,4.26,4.26,0,0,0,1.3,3.29,10.47,10.47,0,0,0,3.56,2.05c1.5.55,3.22,1.15,5.16,1.78a34.76,34.76,0,0,1,5.64,2.49,11.59,11.59,0,0,1,4.09,3.77,10.74,10.74,0,0,1,1.54,6,11.6,11.6,0,0,1-1.66,6,12,12,0,0,1-4.92,4.48A17.25,17.25,0,0,1,868.83,247.77Z"/></svg>